<?xml version="1.0" encoding="utf-8"?>
<!-- Generator: Adobe Illustrator 16.0.0, SVG Export Plug-In . SVG Version: 6.00 Build 0)  -->
<!DOCTYPE svg PUBLIC "-//W3C//DTD SVG 1.1//EN" "http://www.w3.org/Graphics/SVG/1.1/DTD/svg11.dtd">
<svg version="1.1" id="Layer_1" xmlns="http://www.w3.org/2000/svg" xmlns:xlink="http://www.w3.org/1999/xlink" x="0px" y="0px"
	 width="612px" height="792px" viewBox="0 0 612 792" enable-background="new 0 0 612 792" xml:space="preserve">
<path fill="#FFFFFF" d="M490.97,150.682c-37.883,119.702-74.964,239.663-112.354,359.515
	C349.7,602.875,258.487,628.351,184.948,564.45c-1.624-1.413-4.113-1.815-6.198-2.691c-6.943-12.419-13.887-24.838-20.838-37.262
	c-13.512-55.323,4.424-100.23,43.872-139.373c23.84-23.662,45.317-49.708,72.504-79.834c-9.885,63.047-18.664,119.028-28.31,180.598
	c-11.108-13.67-19.451-23.938-27.849-34.273c-22.987,26.408-17.969,63.55,10.501,85.252c29.44,22.448,71.119,15.838,91.492-15.166
	c5.105-7.772,8.623-16.875,11.462-25.815c38.307-120.461,76.657-240.916,113.904-361.702"/>
</svg>
