<?xml version="1.0" encoding="utf-8"?>
<!-- Generator: Adobe Illustrator 16.0.0, SVG Export Plug-In . SVG Version: 6.00 Build 0)  -->
<!DOCTYPE svg PUBLIC "-//W3C//DTD SVG 1.1//EN" "http://www.w3.org/Graphics/SVG/1.1/DTD/svg11.dtd">
<svg version="1.1" id="Layer_1" xmlns="http://www.w3.org/2000/svg" xmlns:xlink="http://www.w3.org/1999/xlink" x="0px" y="0px"
	 width="512px" height="512px" viewBox="0 0 512 512" enable-background="new 0 0 512 512" xml:space="preserve">
<path id="globe-3-icon" fill="#FFFFFF" d="M462,256c0-115.604-93.762-206-206-206C144.542,50,50,139.449,50,256
	c0,117.234,95.125,206,206,206C367.564,462,462,372.406,462,256z M158.527,180.417c-3.932,18.902-6.367,39.029-7.146,59.793H92.283
	c2.635-27.648,12.112-53.299,26.723-75.242C131.695,171.391,145.063,176.438,158.527,180.417z M151.471,271.789
	c0.898,20.947,3.489,41.223,7.6,60.219c-13.784,4.044-26.991,9.04-39.779,15.46c-14.774-22.038-24.356-47.847-27.009-75.679H151.471
	z M167.359,362.459c4.935,14.79,11.216,29.376,19.297,42.713c-17.433-8.118-33.21-19.193-46.675-32.595
	C148.471,368.729,157.635,365.346,167.359,362.459z M271.789,319.158v-47.369h57.664c-0.857,18.496-3.139,36.316-6.701,52.957
	C306.469,321.748,289.355,319.859,271.789,319.158z M314.279,355.275c-7.732,22.147-21.896,50.896-42.49,62.08V350.76
	C286.449,351.393,300.703,352.913,314.279,355.275z M271.789,240.21v-46.786c17.764-0.71,35.062-2.634,51.508-5.689
	c3.383,16.53,5.504,34.188,6.242,52.476L271.789,240.21L271.789,240.21z M271.789,161.82V92.54
	c21.248,11.54,35.648,41.664,43.357,64.609C301.309,159.601,286.762,161.175,271.789,161.82z M240.21,92.823v68.975
	c-14.788-0.659-29.156-2.227-42.831-4.649C205.049,134.317,219.288,104.567,240.21,92.823z M240.21,193.4v46.81h-57.225
	c0.738-18.289,2.86-35.946,6.242-52.477C205.511,190.76,222.63,192.674,240.21,193.4z M189.774,324.747
	c-3.563-16.642-5.845-34.46-6.701-52.958h57.138v47.393C222.828,319.898,205.895,321.779,189.774,324.747z M240.21,350.783v66.289
	c-20.311-11.4-34.28-39.795-41.965-61.795C211.661,352.941,225.735,351.43,240.21,350.783z M345.166,362.458
	c9.588,2.844,18.629,6.176,27.02,9.956c-13.313,13.288-28.897,24.299-46.114,32.418C334.096,391.512,340.279,377.1,345.166,362.458z
	 M353.455,332.006c4.109-18.994,6.701-39.27,7.6-60.217h58.662c-2.645,27.748-12.178,53.482-26.877,75.479
	C380.027,340.88,367.004,335.98,353.455,332.006z M393.127,165.169c14.533,21.899,23.963,47.477,26.59,75.041h-58.572
	c-0.778-20.763-3.215-40.89-7.146-59.792C367.406,176.455,380.635,171.458,393.127,165.169z M372.582,139.989
	c-8.266,3.748-17.174,7.057-26.615,9.893c-4.709-14.58-10.629-28.794-18.174-41.894C344.5,116.106,359.625,126.968,372.582,139.989z
	 M184.942,107.629c-7.712,13.324-13.653,27.607-18.385,42.252c-9.578-2.878-18.609-6.241-26.979-10.058
	C152.69,126.684,168.013,115.751,184.942,107.629z"/>
</svg>
