<?xml version="1.0" encoding="utf-8"?>
<!-- Generator: Adobe Illustrator 16.0.0, SVG Export Plug-In . SVG Version: 6.00 Build 0)  -->
<!DOCTYPE svg PUBLIC "-//W3C//DTD SVG 1.1//EN" "http://www.w3.org/Graphics/SVG/1.1/DTD/svg11.dtd">
<svg version="1.1" id="Layer_1" xmlns="http://www.w3.org/2000/svg" xmlns:xlink="http://www.w3.org/1999/xlink" x="0px" y="0px"
	 width="321.196px" height="195.445px" viewBox="0 0 321.196 195.445" enable-background="new 0 0 321.196 195.445"
	 xml:space="preserve">
<g>
	<path fill="#E5E5E5" stroke="#828282" stroke-miterlimit="10" d="M48.42,43.143c0,3.755-0.952,7.088-2.857,10
		c-1.904,2.913-4.652,5.176-8.24,6.791c-3.588,1.615-7.798,2.423-12.629,2.423c-4.031,0-7.412-0.283-10.145-0.849
		c-2.732-0.565-5.577-1.553-8.53-2.961V43.971c3.119,1.601,6.362,2.851,9.73,3.748c3.368,0.897,6.46,1.345,9.275,1.345
		c2.429,0,4.209-0.42,5.341-1.263c1.132-0.842,1.698-1.925,1.698-3.25c0-0.828-0.228-1.553-0.684-2.174
		c-0.456-0.621-1.187-1.249-2.194-1.884c-1.008-0.635-3.692-1.932-8.054-3.893c-3.948-1.794-6.909-3.533-8.882-5.217
		c-1.974-1.684-3.437-3.616-4.389-5.797c-0.953-2.18-1.429-4.762-1.429-7.743c0-5.576,2.029-9.923,6.086-13.043
		c4.058-3.119,9.634-4.679,16.729-4.679c6.266,0,12.656,1.45,19.171,4.349l-5.01,12.629c-5.659-2.595-10.545-3.893-14.658-3.893
		c-2.126,0-3.672,0.373-4.638,1.118c-0.967,0.746-1.449,1.671-1.449,2.775c0,1.187,0.614,2.25,1.843,3.188
		c1.228,0.938,4.561,2.649,10,5.134c5.217,2.347,8.84,4.865,10.869,7.557C47.406,35.668,48.42,39.058,48.42,43.143z"/>
	<path fill="#E5E5E5" stroke="#828282" stroke-miterlimit="10" d="M93.72,61.528H57.779V0.991H93.72v13.126H74.134v9.523h18.137
		v13.126H74.134v11.428H93.72V61.528z"/>
	<path fill="#E5E5E5" stroke="#828282" stroke-miterlimit="10" d="M131.276,13.537c-3.893,0-6.929,1.594-9.109,4.783
		c-2.181,3.188-3.271,7.584-3.271,13.188c0,11.65,4.431,17.474,13.292,17.474c2.678,0,5.272-0.373,7.785-1.118
		c2.512-0.745,5.038-1.642,7.578-2.691v13.83c-5.052,2.236-10.766,3.354-17.143,3.354c-9.137,0-16.142-2.65-21.014-7.951
		c-4.873-5.299-7.308-12.96-7.308-22.98c0-6.266,1.18-11.773,3.54-16.521c2.36-4.748,5.756-8.398,10.187-10.952
		c4.43-2.553,9.64-3.831,15.631-3.831c6.542,0,12.795,1.422,18.757,4.265l-5.01,12.877c-2.236-1.048-4.472-1.932-6.708-2.65
		C136.245,13.896,133.843,13.537,131.276,13.537z"/>
	<path fill="#E5E5E5" stroke="#828282" stroke-miterlimit="10" d="M210.819,0.991v36.438c0,7.923-2.243,14.058-6.728,18.405
		c-4.488,4.348-10.954,6.522-19.4,6.522c-8.255,0-14.596-2.112-19.027-6.335c-4.431-4.224-6.646-10.296-6.646-18.219V0.991h16.438
		v35.527c0,4.279,0.801,7.385,2.402,9.317c1.6,1.933,3.96,2.898,7.081,2.898c3.34,0,5.762-0.959,7.266-2.878
		c1.505-1.918,2.257-5.058,2.257-9.42V0.991H210.819z"/>
	<path fill="#E5E5E5" stroke="#828282" stroke-miterlimit="10" d="M239.887,39.499v22.029H223.53V0.991h19.836
		c16.451,0,24.678,5.962,24.678,17.888c0,7.012-3.424,12.436-10.27,16.273l17.641,26.376h-18.551l-12.836-22.029H239.887z
		 M239.887,27.202h3.062c5.715,0,8.572-2.526,8.572-7.578c0-4.167-2.802-6.252-8.405-6.252h-3.229V27.202z"/>
	<path fill="#E5E5E5" stroke="#828282" stroke-miterlimit="10" d="M316.862,61.528h-35.94V0.991h35.94v13.126h-19.585v9.523h18.136
		v13.126h-18.136v11.428h19.585V61.528z"/>
</g>
<g>
	<path fill="#E5E5E5" stroke="#828282" stroke-miterlimit="10" d="M18.794,194.383H2.687v-60.537h35.776v13.126H18.794v11.553H36.93
		v13.125H18.794V194.383z"/>
	<path fill="#E5E5E5" stroke="#828282" stroke-miterlimit="10" d="M99.869,133.846v36.438c0,7.923-2.243,14.058-6.729,18.405
		s-10.952,6.521-19.399,6.521c-8.254,0-14.596-2.111-19.026-6.335s-6.646-10.296-6.646-18.219v-36.812h16.439v35.527
		c0,4.278,0.8,7.385,2.401,9.317c1.601,1.933,3.96,2.897,7.08,2.897c3.34,0,5.763-0.958,7.268-2.878
		c1.504-1.918,2.257-5.059,2.257-9.42v-35.444H99.869z"/>
	<path fill="#E5E5E5" stroke="#828282" stroke-miterlimit="10" d="M139.288,194.383h-16.355v-47.163H108.15v-13.375h45.879v13.375
		h-14.741V194.383z"/>
	<path fill="#E5E5E5" stroke="#828282" stroke-miterlimit="10" d="M214.152,133.846v36.438c0,7.923-2.243,14.058-6.729,18.405
		c-4.486,4.348-10.953,6.521-19.399,6.521c-8.253,0-14.596-2.111-19.026-6.335c-4.431-4.224-6.646-10.296-6.646-18.219v-36.812
		h16.438v35.527c0,4.278,0.801,7.385,2.401,9.317s3.961,2.897,7.082,2.897c3.339,0,5.761-0.958,7.265-2.878
		c1.505-1.918,2.257-5.059,2.257-9.42v-35.444H214.152z"/>
	<path fill="#E5E5E5" stroke="#828282" stroke-miterlimit="10" d="M243.22,172.355v22.028h-16.356v-60.537h19.835
		c16.452,0,24.678,5.962,24.678,17.888c0,7.012-3.423,12.437-10.269,16.273l17.639,26.376h-18.55l-12.837-22.028H243.22z
		 M243.22,160.057h3.063c5.714,0,8.572-2.526,8.572-7.578c0-4.167-2.803-6.252-8.406-6.252h-3.229V160.057z"/>
	<path fill="#E5E5E5" stroke="#828282" stroke-miterlimit="10" d="M320.196,194.383h-35.94v-60.537h35.94v13.126h-19.585v9.523
		h18.136v13.125h-18.136v11.429h19.585V194.383z"/>
</g>
<g>
	<path fill="#E5E5E5" stroke="#828282" stroke-miterlimit="10" d="M66.349,89.861l10.436-22.442h17.722l-19.917,36.894v23.644H58.11
		v-23.146L38.193,67.418h17.805L66.349,89.861z"/>
	<path fill="#E5E5E5" stroke="#828282" stroke-miterlimit="10" d="M220.094,67.418v36.438c0,7.923-2.243,14.057-6.729,18.405
		c-4.486,4.348-10.952,6.521-19.4,6.521c-8.253,0-14.596-2.112-19.025-6.335c-4.431-4.224-6.646-10.296-6.646-18.22V67.418h16.438
		v35.527c0,4.279,0.8,7.384,2.402,9.316c1.6,1.933,3.961,2.898,7.081,2.898c3.34,0,5.762-0.959,7.267-2.878
		c1.505-1.918,2.256-5.058,2.256-9.42V67.418H220.094z"/>
	<path fill="#E5E5E5" stroke="#828282" stroke-miterlimit="10" d="M249.162,105.927v22.028h-16.355V67.418h19.834
		c16.451,0,24.679,5.962,24.679,17.888c0,7.011-3.424,12.436-10.269,16.272l17.639,26.376h-18.551l-12.835-22.028H249.162z
		 M249.162,93.629h3.064c5.713,0,8.57-2.525,8.57-7.577c0-4.168-2.801-6.252-8.404-6.252h-3.23V93.629z"/>
	<path id="lock-18-icon" fill="#E5E5E5" stroke="#828282" stroke-miterlimit="10" d="M128.021,66.695
		c-17.568,0-31.81,14.243-31.81,31.812c0,17.568,14.241,31.811,31.81,31.811c17.569,0,31.811-14.243,31.811-31.811
		C159.832,80.938,145.59,66.695,128.021,66.695z M132.632,99.092c-1.043,0.97-1.637,2.331-1.637,3.755v5.458h-5.472v-5.458
		c0-1.424-0.594-2.786-1.637-3.755c-1.261-1.172-2.05-2.845-2.05-4.704c0-3.546,2.875-6.423,6.423-6.423
		c3.547,0,6.422,2.877,6.422,6.423C134.682,96.247,133.894,97.92,132.632,99.092z"/>
</g>
<rect x="-915.843" y="-49.69" fill="none" width="486.455" height="298.701"/>
<text transform="matrix(1 0 0 1 -915.8433 44.7476)"><tspan x="0" y="0" font-family="'OpenSans-Extrabold'" font-size="124.2593">SECURE </tspan><tspan x="0" y="97.336" font-family="'OpenSans-Extrabold'" font-size="124.2593">YOUR </tspan><tspan x="0" y="194.673" font-family="'OpenSans-Extrabold'" font-size="124.2593">FUTURE</tspan></text>
<path id="lock-18-icon_1_" fill="#010101" d="M-623.218,340.822c-27.952,0-50.612,22.66-50.612,50.613
	c0,27.951,22.66,50.611,50.612,50.611c27.953,0,50.611-22.66,50.611-50.611C-572.607,363.482-595.265,340.822-623.218,340.822z
	 M-615.882,392.367c-1.66,1.543-2.604,3.709-2.604,5.975v8.684h-8.706v-8.684c0-2.266-0.944-4.432-2.604-5.975
	c-2.007-1.865-3.262-4.527-3.262-7.484c0-5.643,4.575-10.219,10.22-10.219c5.644,0,10.219,4.576,10.219,10.219
	C-612.621,387.839-613.875,390.501-615.882,392.367z M-642.584,332.558c-6.917,2.279-13.284,5.705-18.925,10.148V324.89
	c0-21.01,17.092-38.102,38.102-38.102s38.103,17.092,38.103,38.102v17.525c-5.638-4.373-11.994-7.746-18.925-9.979v-7.547
	c0-10.574-8.604-19.178-19.178-19.178s-19.177,8.604-19.177,19.178V332.558L-642.584,332.558z"/>
</svg>
