<?xml version="1.0" encoding="utf-8"?>
<!-- Generator: Adobe Illustrator 16.0.0, SVG Export Plug-In . SVG Version: 6.00 Build 0)  -->
<!DOCTYPE svg PUBLIC "-//W3C//DTD SVG 1.1//EN" "http://www.w3.org/Graphics/SVG/1.1/DTD/svg11.dtd">
<svg version="1.1" id="Layer_1" xmlns="http://www.w3.org/2000/svg" xmlns:xlink="http://www.w3.org/1999/xlink" x="0px" y="0px"
	 width="512px" height="512px" viewBox="0 0 512 512" enable-background="new 0 0 512 512" xml:space="preserve">
<path id="shield-3-icon" fill="#FFFFFF" d="M256,102.433c46.975,34.162,100.779,47.517,143.455,52.245
	C388.319,257.588,332.197,353.064,256,412.763c-76.084-59.608-132.305-155.036-143.455-258.085
	C155.221,149.95,209.026,136.594,256,102.433 M256,50c-51.418,51.417-125.167,67-185.5,67c0,147.334,83.666,278,185.5,345
	c101.834-67,185.5-197.666,185.5-345C381.167,117,307.417,101.417,256,50z M365.302,179.834
	C330.69,173.191,292.23,160.835,256,138.52c-36.23,22.315-74.689,34.671-109.302,41.314c14.978,76.026,55.894,144.754,109.302,193.6
	C309.412,324.585,350.324,255.856,365.302,179.834z"/>
</svg>
